<?xml version="1.0" encoding="utf-8"?>
<!-- Generator: Adobe Illustrator 16.0.0, SVG Export Plug-In . SVG Version: 6.00 Build 0)  -->
<!DOCTYPE svg PUBLIC "-//W3C//DTD SVG 1.1//EN" "http://www.w3.org/Graphics/SVG/1.1/DTD/svg11.dtd">
<svg version="1.1" id="Capa_1" xmlns="http://www.w3.org/2000/svg" xmlns:xlink="http://www.w3.org/1999/xlink" x="0px" y="0px"
	 width="512px" height="512px" viewBox="0 0 512 512" enable-background="new 0 0 512 512" xml:space="preserve">
<g>
	<g>
		<path d="M256,0C114.609,0,0,114.609,0,256c0,141.391,114.609,256,256,256c141.391,0,256-114.609,256-256
			C512,114.609,397.391,0,256,0z M256,472c-119.297,0-216-96.703-216-216S136.703,40,256,40s216,96.703,216,216S375.297,472,256,472
			z"/>
	</g>
</g>
<g>
	<path fill-rule="evenodd" clip-rule="evenodd" d="M179.991,303.254c-1.992-0.318-3.999-0.563-5.974-0.967
		c-18.591-3.802-33.719-19.23-36.7-37.918c-3.013-18.889,3.242-34.378,18.246-46.176c7.096-5.581,15.35-8.536,24.368-9.277
		c0.276-0.022,0.546-0.111,0.819-0.17c2.024,0,4.049,0,6.073,0c0.272,0.059,0.543,0.133,0.819,0.172
		c1.969,0.283,3.965,0.438,5.905,0.856c25.033,5.413,41.176,29.37,36.766,54.508c-3.319,18.92-18.094,34.178-36.85,38.019
		c-1.943,0.398-3.919,0.639-5.88,0.953C185.052,303.254,182.521,303.254,179.991,303.254z M183.771,293.227
		c20.501,0.007,37.16-16.616,37.212-37.132c0.052-20.499-16.672-37.266-37.18-37.273c-20.476-0.009-37.17,16.657-37.21,37.148
		C146.551,276.498,163.237,293.219,183.771,293.227z"/>
	<path fill-rule="evenodd" clip-rule="evenodd" d="M289.11,208.746c1.713,0.243,3.438,0.424,5.137,0.739
		c13.291,2.465,23.729,9.349,31.25,20.539c5.73,8.525,8.387,18.034,7.764,28.276c-0.978,16.083-8.333,28.63-21.759,37.532
		c-6.35,4.211-13.399,6.567-20.996,7.266c-0.215,0.02-0.425,0.102-0.637,0.155c-2.529,0-5.061,0-7.591,0
		c-0.275-0.059-0.548-0.144-0.825-0.171c-9.617-0.957-18.188-4.506-25.552-10.725c-16.67-14.078-21.822-36.393-12.634-56.168
		c6.655-14.32,18.054-23.093,33.504-26.488c2.12-0.466,4.302-0.645,6.455-0.956C285.188,208.746,287.149,208.746,289.11,208.746z
		 M285.993,293.227c20.507,0.044,37.199-16.548,37.281-37.057c0.082-20.519-16.596-37.307-37.102-37.349
		c-20.517-0.043-37.259,16.646-37.288,37.168C248.855,276.475,265.505,293.183,285.993,293.227z"/>
	<path fill-rule="evenodd" clip-rule="evenodd" d="M66.317,279.722c1.191-2.196,3.391-2.711,5.539-3.206
		c2.071-0.479,2.725-0.015,3.582,1.939c3.524,8.034,9.418,13.253,18.123,15.009c12.404,2.502,25.291-6.33,27.608-18.772
		c2.695-14.471-7.403-26.229-19.854-28.321c-5.281-0.888-10.164,0.398-14.775,2.921c-3.793,2.075-7.054,4.788-9.598,8.313
		c-0.725,1.005-1.701,1.566-2.92,1.418c-1.305-0.16-2.614-0.409-3.874-0.78c-1.168-0.343-1.774-1.264-1.846-2.497
		c-0.016-0.284-0.021-0.568-0.021-0.854c0-13.346-0.002-26.69,0.004-40.035c0-0.536,0.037-1.077,0.123-1.605
		c0.354-2.18,1.913-3.546,4.123-3.548c15.623-0.01,31.245-0.007,46.867-0.002c1.566,0.001,2.47,0.596,2.633,2.141
		c0.18,1.706,0.134,3.461-0.038,5.172c-0.124,1.237-0.77,1.626-2.019,1.707c-0.346,0.022-0.695,0.012-1.043,0.012
		c-13.408,0-26.817,0-40.225,0c-0.41,0-0.819,0-1.308,0c0,8.313,0,16.577,0,24.984c0.287-0.198,0.532-0.359,0.77-0.532
		c18.644-13.559,44.851-4.682,51.398,17.41c5.63,18.998-6.738,38.861-26.218,42.099c-1.269,0.212-2.546,0.375-3.82,0.562
		c-1.075,0-2.151,0-3.226,0c-0.306-0.056-0.611-0.138-0.92-0.164c-9.526-0.783-17.307-4.915-23.421-12.226
		c-2.496-2.984-4.253-6.393-5.642-10.004C66.317,280.48,66.317,280.101,66.317,279.722z"/>
	<path fill-rule="evenodd" clip-rule="evenodd" d="M343.014,254.948c0-7.021-0.199-14.049,0.05-21.06
		c0.337-9.507,4.604-16.972,12.929-21.692c14.107-8,32.179,0.415,35.591,16.371c3.244,15.167-8.088,27.866-20.998,29.691
		c-1.976,0.279-4.031,0.124-6.038-0.003c-1.461-0.094-2.127-0.848-2.122-2.298c0.004-1.444,0.114-2.911,0.388-4.327
		c0.317-1.65,1.199-2.273,2.887-2.282c3.073-0.014,6.025-0.504,8.801-1.915c5.876-2.989,9.373-10.784,8.378-16.272
		c-1.161-6.395-6.357-11.684-12.828-12.707c-8.023-1.27-15.576,4.074-17.349,12.348c-0.301,1.408-0.412,2.881-0.415,4.324
		c-0.03,13.63-0.018,27.26-0.019,40.889c0,2.544-0.616,3.307-3.136,3.558c-1.182,0.118-2.4,0.068-3.585-0.066
		c-1.778-0.2-2.537-1.134-2.538-2.927c-0.007-7.211-0.003-14.421-0.003-21.631C343.009,254.948,343.011,254.948,343.014,254.948z"/>
	<path fill-rule="evenodd" clip-rule="evenodd" d="M421.5,239.945c-2.819,2.828-5.449,5.468-8.083,8.107
		c-2.903,2.91-5.804,5.822-8.715,8.725c-1.624,1.62-2.98,1.719-4.743,0.25c-0.745-0.621-1.426-1.354-1.997-2.139
		c-1.155-1.585-1.024-2.739,0.349-4.114c5.024-5.036,10.053-10.068,15.085-15.096c0.558-0.558,1.155-1.075,1.936-1.796
		c-0.868-0.792-1.657-1.455-2.382-2.182c-4.891-4.902-9.769-9.816-14.646-14.731c-1.431-1.442-1.558-2.574-0.309-4.172
		c0.693-0.887,1.514-1.707,2.4-2.4c1.482-1.16,2.705-1.022,4.028,0.307c5.438,5.471,10.873,10.946,16.306,16.425
		c0.177,0.179,0.312,0.398,0.599,0.773c0.954-1.012,1.775-1.924,2.64-2.792c4.709-4.727,9.428-9.443,14.144-14.162
		c1.681-1.681,2.939-1.777,4.78-0.238c0.768,0.641,1.469,1.4,2.052,2.214c1.103,1.54,0.966,2.621-0.361,3.95
		c-5.384,5.392-10.77,10.782-16.167,16.161c-0.264,0.264-0.631,0.424-1.019,0.677c3.467,3.45,6.696,6.658,9.92,9.872
		c2.418,2.411,4.831,4.827,7.242,7.246c1.323,1.327,1.505,2.456,0.397,3.953c-0.721,0.974-1.597,1.895-2.57,2.609
		c-1.474,1.081-2.784,0.866-4.072-0.423c-5.366-5.366-10.729-10.735-16.086-16.109C421.982,240.616,421.792,240.317,421.5,239.945z"
		/>
</g>
</svg>
