<?xml version="1.0" encoding="utf-8"?>
<!-- Generator: Adobe Illustrator 16.0.0, SVG Export Plug-In . SVG Version: 6.00 Build 0)  -->
<!DOCTYPE svg PUBLIC "-//W3C//DTD SVG 1.1//EN" "http://www.w3.org/Graphics/SVG/1.1/DTD/svg11.dtd">
<svg version="1.1" id="Capa_1" xmlns="http://www.w3.org/2000/svg" xmlns:xlink="http://www.w3.org/1999/xlink" x="0px" y="0px"
	 width="512px" height="512px" viewBox="0 0 512 512" enable-background="new 0 0 512 512" xml:space="preserve">
<g>
	<g>
		<path d="M256,0C114.609,0,0,114.609,0,256c0,141.391,114.609,256,256,256c141.391,0,256-114.609,256-256
			C512,114.609,397.391,0,256,0z M256,472c-119.297,0-216-96.703-216-216S136.703,40,256,40s216,96.703,216,216S375.297,472,256,472
			z"/>
	</g>
</g>
<g>
	<g>
		<path d="M241.269,186.718c5.161,7.212,7.759,15.911,7.759,26.028c0,10.408-2.632,18.816-7.827,25.156
			c-2.939,3.537-7.195,6.785-12.852,9.69c8.596,3.196,15.09,8.185,19.482,15.057c4.375,6.921,6.563,15.227,6.563,25.036
			c0,10.117-2.495,19.175-7.52,27.19c-3.179,5.349-7.144,9.809-11.929,13.5c-5.366,4.153-11.758,6.973-19.055,8.545
			c-7.332,1.504-15.279,2.273-23.84,2.273H116V168.5h81.57C218.129,168.791,232.724,174.857,241.269,186.718z M149.667,198.186
			v37.598h41.016c7.314,0,13.244-1.401,17.858-4.205c4.53-2.854,6.836-7.844,6.836-15.005c0-7.981-3.025-13.176-9.057-15.757
			c-5.195-1.777-11.877-2.631-19.944-2.631H149.667z M149.667,264.101v45.476h40.947c7.315,0,13.022-1.042,17.09-3.026
			c7.417-3.724,11.108-10.833,11.108-21.31c0-8.905-3.589-14.987-10.767-18.303c-3.999-1.846-9.604-2.803-16.851-2.837H149.667z"/>
		<path d="M363.358,215.514c8.716,3.965,15.911,10.169,21.602,18.679c5.075,7.553,8.408,16.236,9.946,26.131
			c0.854,5.775,1.213,14.099,1.06,25.002h-90.884c0.513,12.715,4.888,21.567,13.091,26.678c4.956,3.161,10.957,4.733,17.944,4.733
			c7.434,0,13.484-1.933,18.098-5.794c2.564-2.084,4.785-4.94,6.751-8.683h33.292c-0.873,7.451-4.922,15.091-12.1,22.852
			C370.98,337.33,355.326,343.5,335.211,343.5c-16.594,0-31.223-5.178-43.938-15.535c-12.681-10.373-19.004-27.189-19.004-50.551
			c0-21.841,5.708-38.641,17.192-50.313c11.433-11.655,26.302-17.518,44.59-17.518C344.901,209.583,354.677,211.618,363.358,215.514
			z M314.584,244.037c-4.616,4.836-7.487,11.33-8.683,19.584h56.192c-0.598-8.783-3.504-15.466-8.716-19.978
			c-5.179-4.529-11.621-6.802-19.312-6.802C325.692,236.842,319.182,239.269,314.584,244.037z"/>
	</g>
	<rect x="291" y="186" width="87.5" height="17.5"/>
</g>
</svg>
