<?xml version="1.0" encoding="utf-8"?>
<!-- Generator: Adobe Illustrator 16.0.0, SVG Export Plug-In . SVG Version: 6.00 Build 0)  -->
<!DOCTYPE svg PUBLIC "-//W3C//DTD SVG 1.1//EN" "http://www.w3.org/Graphics/SVG/1.1/DTD/svg11.dtd">
<svg version="1.1" id="Capa_1" xmlns="http://www.w3.org/2000/svg" xmlns:xlink="http://www.w3.org/1999/xlink" x="0px" y="0px"
	 width="512px" height="512px" viewBox="0 0 512 512" enable-background="new 0 0 512 512" xml:space="preserve">
<g>
	<g>
		<path d="M256,0C114.609,0,0,114.609,0,256c0,141.391,114.609,256,256,256c141.391,0,256-114.609,256-256
			C512,114.609,397.391,0,256,0z M256,472c-119.297,0-216-96.703-216-216S136.703,40,256,40s216,96.703,216,216S375.297,472,256,472
			z"/>
	</g>
</g>
<g>
	<path fill-rule="evenodd" clip-rule="evenodd" d="M116.533,221.169c40.321,21.099,80.634,42.213,120.979,63.268
		c3.607,1.882,7.377,3.473,11.146,5.015c4.828,1.974,9.771,1.986,14.592,0.005c4.019-1.651,8.033-3.364,11.881-5.374
		c38.977-20.347,77.918-40.759,116.872-61.148c1.016-0.531,2.07-0.988,3.398-1.617c0,1.238,0,2.127,0,3.018
		c0,39.123,0.003,78.249-0.001,117.374c0,11.618-7.242,18.893-18.816,18.893c-80.155,0.002-160.311,0.001-240.468,0.001
		c-10.446,0-15.904-3.918-19.22-13.783c-0.05-0.149-0.239-0.254-0.363-0.378C116.533,304.684,116.533,262.926,116.533,221.169z"/>
	<path fill-rule="evenodd" clip-rule="evenodd" d="M116.533,165.613c0.498-1.237,0.934-2.503,1.506-3.706
		c3.125-6.58,8.348-10.202,15.622-10.405c7.253-0.202,14.517-0.05,21.777-0.05c73.594,0,147.188-0.001,220.779,0
		c12.016,0,19.178,7.118,19.184,19.054c0.001,2.995-0.146,5.999,0.052,8.98c0.137,2.058-0.702,3-2.442,3.913
		c-42.939,22.51-85.921,44.947-128.685,67.792c-6.071,3.243-10.497,3.349-16.655,0.051c-42.501-22.757-85.254-45.044-127.936-67.464
		c-1.012-0.532-2.132-0.859-3.202-1.282C116.533,176.87,116.533,171.242,116.533,165.613z"/>
</g>
</svg>
