<?xml version="1.0" encoding="utf-8"?>
<!-- Generator: Adobe Illustrator 16.0.0, SVG Export Plug-In . SVG Version: 6.00 Build 0)  -->
<!DOCTYPE svg PUBLIC "-//W3C//DTD SVG 1.1//EN" "http://www.w3.org/Graphics/SVG/1.1/DTD/svg11.dtd">
<svg version="1.1" id="Capa_1" xmlns="http://www.w3.org/2000/svg" xmlns:xlink="http://www.w3.org/1999/xlink" x="0px" y="0px"
	 width="512px" height="512px" viewBox="0 0 512 512" enable-background="new 0 0 512 512" xml:space="preserve">
<g>
	<g>
		<path fill="#FFFFFF" d="M256,0C114.609,0,0,114.609,0,256c0,141.391,114.609,256,256,256c141.391,0,256-114.609,256-256
			C512,114.609,397.391,0,256,0z M256,472c-119.297,0-216-96.703-216-216S136.703,40,256,40s216,96.703,216,216S375.297,472,256,472
			z"/>
	</g>
</g>
<g>
	<path fill="#FFFFFF" d="M223.601,394.506c0-46.173,0-92.262,0-138.439c-12.309,0-24.532,0-36.835,0c0-15.414,0-30.743,0-46.159
		c12.235,0,24.458,0,36.865,0c0-0.526,0-0.967,0-1.408c0-8.737-0.012-17.473,0.003-26.208c0.018-11.004,1.734-21.688,6.359-31.754
		c7.118-15.493,19.099-25.325,35.383-30.045c7.293-2.114,14.765-2.97,22.337-2.984c12.161-0.024,24.322-0.007,36.483-0.007
		c0.3,0,0.6,0,0.966,0c0,15.392,0,30.693,0,46.181c-0.37,0-0.773,0-1.176,0c-8.043,0.003-16.088-0.1-24.129,0.06
		c-3.322,0.065-6.692,0.432-9.94,1.124c-6.722,1.433-10.036,5.425-10.617,12.292c-0.155,1.837-0.235,3.688-0.239,5.532
		c-0.024,8.582-0.012,17.164-0.012,25.746c0,0.42,0,0.84,0,1.388c15.387,0,30.717,0,46.186,0
		c-1.855,15.469-3.694,30.795-5.545,46.225c-13.545,0-27.037,0-40.611,0c0,46.198,0,92.287,0,138.46
		C260.583,394.506,242.177,394.506,223.601,394.506z"/>
</g>
</svg>
