<?xml version="1.0" encoding="utf-8"?>
<!-- Generator: Adobe Illustrator 16.0.0, SVG Export Plug-In . SVG Version: 6.00 Build 0)  -->
<!DOCTYPE svg PUBLIC "-//W3C//DTD SVG 1.1//EN" "http://www.w3.org/Graphics/SVG/1.1/DTD/svg11.dtd">
<svg version="1.1" id="Capa_1" xmlns="http://www.w3.org/2000/svg" xmlns:xlink="http://www.w3.org/1999/xlink" x="0px" y="0px"
	 width="512px" height="512px" viewBox="0 0 512 512" enable-background="new 0 0 512 512" xml:space="preserve">
<g>
	<g>
		<path fill="#FFFFFF" d="M256,0C114.609,0,0,114.609,0,256c0,141.391,114.609,256,256,256c141.391,0,256-114.609,256-256
			C512,114.609,397.391,0,256,0z M256,472c-119.297,0-216-96.703-216-216S136.703,40,256,40s216,96.703,216,216S375.297,472,256,472
			z"/>
	</g>
</g>
<g>
	<g>
		<g>
			<defs>
				<rect id="SVGID_1_" x="116.467" y="116.467" width="279.066" height="279.066"/>
			</defs>
			<clipPath id="SVGID_2_">
				<use xlink:href="#SVGID_1_"  overflow="visible"/>
			</clipPath>
			<path clip-path="url(#SVGID_2_)" fill="#FFFFFF" d="M256.001,141.606c37.257,0,41.668,0.143,56.383,0.813
				c13.604,0.622,20.992,2.895,25.909,4.805c6.514,2.532,11.161,5.556,16.044,10.438c4.884,4.883,7.907,9.529,10.438,16.043
				c1.91,4.917,4.184,12.306,4.804,25.91c0.671,14.714,0.813,19.126,0.813,56.384c0,37.259-0.144,41.671-0.813,56.384
				c-0.62,13.605-2.894,20.993-4.804,25.909c-2.531,6.513-5.556,11.161-10.438,16.045c-4.883,4.882-9.53,7.906-16.044,10.438
				c-4.917,1.909-12.307,4.184-25.909,4.804c-14.712,0.672-19.122,0.813-56.383,0.813s-41.672-0.142-56.384-0.813
				c-13.604-0.62-20.992-2.895-25.91-4.804c-6.512-2.531-11.161-5.557-16.044-10.438c-4.882-4.884-7.906-9.532-10.437-16.045
				c-1.91-4.916-4.185-12.304-4.805-25.909c-0.67-14.713-0.813-19.125-0.813-56.384c0-37.257,0.143-41.67,0.813-56.384
				c0.621-13.604,2.895-20.992,4.805-25.91c2.531-6.513,5.555-11.16,10.437-16.043c4.883-4.882,9.532-7.906,16.044-10.438
				c4.917-1.91,12.306-4.184,25.91-4.805C214.332,141.749,218.743,141.606,256.001,141.606 M256.001,116.466
				c-37.896,0-42.647,0.16-57.529,0.84c-14.853,0.678-24.995,3.037-33.87,6.486c-9.176,3.565-16.958,8.336-24.714,16.093
				c-7.757,7.757-12.529,15.54-16.094,24.714c-3.451,8.878-5.809,19.02-6.487,33.872c-0.679,14.883-0.839,19.634-0.839,57.528
				c0,37.896,0.16,42.646,0.839,57.528c0.678,14.854,3.036,24.996,6.487,33.871c3.565,9.176,8.337,16.958,16.094,24.716
				c7.756,7.756,15.538,12.527,24.714,16.094c8.875,3.448,19.018,5.807,33.87,6.485c14.882,0.679,19.634,0.84,57.529,0.84
				c37.896,0,42.646-0.161,57.528-0.84c14.854-0.679,24.994-3.037,33.871-6.485c9.176-3.565,16.955-8.337,24.715-16.094
				c7.757-7.758,12.527-15.54,16.094-24.716c3.449-8.875,5.809-19.019,6.486-33.871c0.679-14.883,0.838-19.633,0.838-57.528
				c0-37.895-0.159-42.646-0.838-57.528c-0.678-14.853-3.037-24.994-6.486-33.872c-3.566-9.174-8.337-16.957-16.094-24.714
				c-7.758-7.757-15.539-12.528-24.715-16.093c-8.875-3.449-19.019-5.808-33.871-6.486
				C298.646,116.626,293.896,116.466,256.001,116.466"/>
		</g>
	</g>
	<g>
		<g>
			<defs>
				<rect id="SVGID_3_" x="116.467" y="116.467" width="279.066" height="279.066"/>
			</defs>
			<clipPath id="SVGID_4_">
				<use xlink:href="#SVGID_3_"  overflow="visible"/>
			</clipPath>
			<path clip-path="url(#SVGID_4_)" fill="#FFFFFF" d="M256.001,184.348c-39.572,0-71.652,32.079-71.652,71.651
				c0,39.571,32.081,71.651,71.652,71.651c39.571,0,71.651-32.08,71.651-71.651C327.652,216.427,295.572,184.348,256.001,184.348
				 M256.001,302.51c-25.688,0-46.512-20.822-46.512-46.511c0-25.688,20.824-46.511,46.512-46.511
				c25.688,0,46.511,20.823,46.511,46.511C302.512,281.688,281.688,302.51,256.001,302.51"/>
		</g>
	</g>
	<g>
		<g>
			<defs>
				<rect id="SVGID_5_" x="116.467" y="116.467" width="279.066" height="279.066"/>
			</defs>
			<clipPath id="SVGID_6_">
				<use xlink:href="#SVGID_5_"  overflow="visible"/>
			</clipPath>
			<path clip-path="url(#SVGID_6_)" fill="#FFFFFF" d="M347.229,181.517c0,9.246-7.496,16.743-16.744,16.743
				s-16.743-7.497-16.743-16.743c0-9.249,7.495-16.745,16.743-16.745S347.229,172.268,347.229,181.517"/>
		</g>
	</g>
</g>
</svg>
