<?xml version="1.0" encoding="utf-8"?>
<!-- Generator: Adobe Illustrator 16.0.0, SVG Export Plug-In . SVG Version: 6.00 Build 0)  -->
<!DOCTYPE svg PUBLIC "-//W3C//DTD SVG 1.1//EN" "http://www.w3.org/Graphics/SVG/1.1/DTD/svg11.dtd">
<svg version="1.1" id="Capa_1" xmlns="http://www.w3.org/2000/svg" xmlns:xlink="http://www.w3.org/1999/xlink" x="0px" y="0px"
	 width="512px" height="512px" viewBox="0 0 512 512" enable-background="new 0 0 512 512" xml:space="preserve">
<g>
	<g>
		<path d="M256,0C114.609,0,0,114.609,0,256c0,141.391,114.609,256,256,256c141.391,0,256-114.609,256-256
			C512,114.609,397.391,0,256,0z M256,472c-119.297,0-216-96.703-216-216S136.703,40,256,40s216,96.703,216,216S375.297,472,256,472
			z"/>
	</g>
</g>
<g>
	<g>
		<defs>
			<rect id="SVGID_1_" x="116.467" y="116.467" width="279.066" height="279.066"/>
		</defs>
		<clipPath id="SVGID_2_">
			<use xlink:href="#SVGID_1_"  overflow="visible"/>
		</clipPath>
		<path clip-path="url(#SVGID_2_)" d="M256.001,141.606c37.257,0,41.668,0.143,56.383,0.813c13.604,0.622,20.992,2.895,25.909,4.805
			c6.514,2.532,11.161,5.556,16.044,10.438c4.884,4.883,7.907,9.529,10.438,16.043c1.91,4.917,4.184,12.306,4.804,25.91
			c0.671,14.714,0.813,19.126,0.813,56.384c0,37.259-0.143,41.671-0.813,56.384c-0.62,13.605-2.894,20.993-4.804,25.909
			c-2.531,6.513-5.555,11.161-10.438,16.045c-4.883,4.882-9.53,7.906-16.044,10.438c-4.917,1.91-12.306,4.184-25.909,4.804
			c-14.712,0.672-19.122,0.813-56.383,0.813s-41.672-0.142-56.384-0.813c-13.604-0.62-20.992-2.894-25.91-4.804
			c-6.512-2.531-11.161-5.556-16.044-10.438c-4.882-4.884-7.906-9.532-10.437-16.045c-1.91-4.916-4.185-12.304-4.805-25.909
			c-0.67-14.713-0.813-19.125-0.813-56.384c0-37.257,0.143-41.67,0.813-56.384c0.621-13.604,2.895-20.992,4.805-25.91
			c2.531-6.513,5.555-11.16,10.437-16.043c4.883-4.882,9.532-7.906,16.044-10.438c4.917-1.91,12.306-4.184,25.91-4.805
			C214.332,141.749,218.743,141.606,256.001,141.606 M256.001,116.466c-37.896,0-42.647,0.16-57.529,0.84
			c-14.853,0.678-24.995,3.037-33.87,6.486c-9.176,3.565-16.958,8.336-24.714,16.093c-7.757,7.757-12.529,15.54-16.094,24.714
			c-3.451,8.878-5.809,19.02-6.487,33.872c-0.679,14.883-0.839,19.634-0.839,57.528c0,37.896,0.16,42.646,0.839,57.528
			c0.678,14.854,3.036,24.996,6.487,33.871c3.565,9.176,8.337,16.958,16.094,24.716c7.756,7.756,15.538,12.528,24.714,16.094
			c8.875,3.448,19.018,5.807,33.87,6.485c14.882,0.679,19.634,0.84,57.529,0.84c37.895,0,42.646-0.161,57.528-0.84
			c14.854-0.678,24.995-3.037,33.871-6.485c9.176-3.565,16.956-8.337,24.715-16.094c7.757-7.758,12.527-15.54,16.094-24.716
			c3.449-8.875,5.808-19.018,6.486-33.871c0.679-14.882,0.838-19.633,0.838-57.528c0-37.895-0.159-42.646-0.838-57.528
			c-0.678-14.853-3.037-24.994-6.486-33.872c-3.566-9.174-8.337-16.957-16.094-24.714c-7.758-7.757-15.539-12.528-24.715-16.093
			c-8.875-3.449-19.018-5.808-33.871-6.486C298.647,116.626,293.896,116.466,256.001,116.466"/>
	</g>
	<g>
		<defs>
			<rect id="SVGID_3_" x="116.467" y="116.467" width="279.066" height="279.066"/>
		</defs>
		<clipPath id="SVGID_4_">
			<use xlink:href="#SVGID_3_"  overflow="visible"/>
		</clipPath>
		<path clip-path="url(#SVGID_4_)" d="M256.001,184.348c-39.572,0-71.652,32.079-71.652,71.651s32.081,71.651,71.652,71.651
			c39.571,0,71.651-32.079,71.651-71.651S295.572,184.348,256.001,184.348 M256.001,302.51c-25.688,0-46.512-20.823-46.512-46.511
			s20.824-46.511,46.512-46.511c25.688,0,46.511,20.823,46.511,46.511S281.688,302.51,256.001,302.51"/>
	</g>
	<g>
		<defs>
			<rect id="SVGID_5_" x="116.467" y="116.467" width="279.066" height="279.066"/>
		</defs>
		<clipPath id="SVGID_6_">
			<use xlink:href="#SVGID_5_"  overflow="visible"/>
		</clipPath>
		<path clip-path="url(#SVGID_6_)" d="M347.229,181.517c0,9.246-7.496,16.743-16.745,16.743c-9.247,0-16.743-7.497-16.743-16.743
			c0-9.249,7.496-16.745,16.743-16.745C339.732,164.772,347.229,172.268,347.229,181.517"/>
	</g>
</g>
</svg>
