<?xml version="1.0" encoding="utf-8"?>
<!-- Generator: Adobe Illustrator 16.0.0, SVG Export Plug-In . SVG Version: 6.00 Build 0)  -->
<!DOCTYPE svg PUBLIC "-//W3C//DTD SVG 1.1//EN" "http://www.w3.org/Graphics/SVG/1.1/DTD/svg11.dtd">
<svg version="1.1" id="Capa_1" xmlns="http://www.w3.org/2000/svg" xmlns:xlink="http://www.w3.org/1999/xlink" x="0px" y="0px"
	 width="512px" height="512px" viewBox="0 0 512 512" enable-background="new 0 0 512 512" xml:space="preserve">
<g>
	<g>
		<path d="M256,0C114.609,0,0,114.609,0,256c0,141.391,114.609,256,256,256c141.391,0,256-114.609,256-256
			C512,114.609,397.391,0,256,0z M256,472c-119.297,0-216-96.703-216-216S136.703,40,256,40s216,96.703,216,216S375.297,472,256,472
			z"/>
	</g>
</g>
<path d="M116.666,395.306h52.296V186.176h-52.296V395.306z M325.796,186.176c-44.786,0.74-66.809,33.347-69.71,34.883v-34.883
	h-52.297v209.129h52.297V273.3c0-4.495,11.04-40.29,52.296-34.883c22.137,1.423,34.086,30.729,34.883,34.883v122.006l52.069,0.228
	V250.764C393.457,229.88,382.985,186.916,325.796,186.176z M142.786,116.467c-14.455,0-26.12,11.666-26.12,26.12
	c0,14.454,11.722,26.12,26.12,26.12c14.397,0,26.12-11.666,26.12-26.12C168.962,128.133,157.24,116.467,142.786,116.467z"/>
</svg>
