<svg xmlns="http://www.w3.org/2000/svg" viewBox="0 0 489.13 318.12"><defs><style>.cls-1{fill:#333;}</style></defs><title>logoAsset 2(#333 grey)</title><g id="Layer_2" data-name="Layer 2"><g id="Layer_1-2" data-name="Layer 1"><path class="cls-1" d="M149.45,32.15,26.89,83.49l122.56,51.68v31.08L0,101.29V66L149.45,1.08Z"/><path class="cls-1" d="M339.67,287l122.57-51.33L339.67,184V152.95l149.45,65v35.27l-149.45,65Z"/><path class="cls-1" d="M339.67,0Q212.25,212.07,191.17,249.38t-21.09,49.45q0,13.65,11.55,13.65,25.51,0,93.58-96.32,1.5-3,3.64-3a1.63,1.63,0,0,1,1.21,1.82q0,1.82-3,4.86L264,237.74Q206.55,317,179.22,317a26.82,26.82,0,0,1-21.41-9.86q-8.36-9.86-8.35-25a72,72,0,0,1,7.74-32.31q7.74-15.62,52.64-90.26Q264.74,68.26,302.36,1.21Z"/></g></g></svg>