<?xml version="1.0" encoding="utf-8"?>
<!-- Generator: Adobe Illustrator 16.0.0, SVG Export Plug-In . SVG Version: 6.00 Build 0)  -->
<!DOCTYPE svg PUBLIC "-//W3C//DTD SVG 1.1//EN" "http://www.w3.org/Graphics/SVG/1.1/DTD/svg11.dtd">
<svg version="1.1" id="Capa_1" xmlns="http://www.w3.org/2000/svg" xmlns:xlink="http://www.w3.org/1999/xlink" x="0px" y="0px"
	 width="512px" height="512px" viewBox="0 0 512 512" enable-background="new 0 0 512 512" xml:space="preserve">
<g>
	<path fill="#FFFFFF" d="M256.03,510.88C115.088,510.598,1.023,396.985,1.148,255.816C1.273,114.948,114.678,1.193,255.845,1.12
		c141.545-0.074,255.259,113.989,255.006,255.381C510.6,397.378,396.805,510.563,256.03,510.88z M218.678,136.688
		c-5.894,0-11.798-0.228-17.679,0.049c-11.439,0.539-22.9,1.007-34.289,2.141c-22.938,2.284-45.575,6.321-67.759,12.755
		c-12.226,3.546-18.895,12.329-18.516,24.984c0.384,12.854,13.666,23.881,26.316,21.5c6.354-1.196,12.541-3.25,18.843-4.743
		c25.068-5.936,50.554-8.849,76.247-9.698c12.859-0.426,25.761-0.083,38.625,0.41c10.856,0.417,21.703,1.346,32.521,2.417
		c22.623,2.242,44.889,6.527,66.777,12.65c23.709,6.632,46.482,15.544,67.739,28.125c8.397,4.969,20.636,3.204,27.757-3.751
		c11.195-10.934,8.915-29.311-4.729-37.422c-16.776-9.972-34.507-17.909-52.895-24.393c-30.86-10.883-62.64-17.706-95.1-21.616
		C261.318,137.539,240.033,136.388,218.678,136.688z M213.606,224.479c-6.144,0-12.29-0.122-18.431,0.024
		c-14.808,0.352-29.545,1.775-44.049,4.684c-13.591,2.726-27.097,5.977-40.489,9.561c-8.237,2.204-13.949,11.473-13.151,19.658
		c1.269,13.007,13.084,21.076,25.662,17.395c19.123-5.599,38.583-9.307,58.441-11.041c15.831-1.383,31.655-1.762,47.536-1.004
		c15.375,0.735,30.63,2.333,45.779,5.021c36.09,6.408,70.361,17.82,101.889,36.851c7.721,4.662,17.614,3.486,23.982-2.709
		c9.392-9.136,7.322-24.207-4.342-31.313c-17.746-10.813-36.52-19.466-56.098-26.359
		C299.337,230.807,257.027,224.063,213.606,224.479z M216.699,307.331c-4.815,0-9.634-0.139-14.44,0.032
		c-6.551,0.232-13.115,0.48-19.636,1.11c-20.856,2.012-41.51,5.331-61.946,9.991c-8.692,1.979-13.877,9.773-12.213,18.514
		c1.522,7.994,9.347,13.654,17.283,12.255c7.526-1.327,14.981-3.05,22.506-4.384c26.385-4.679,52.919-7.698,79.776-6.16
		c10.018,0.575,20.06,1.211,30.003,2.509c26.661,3.479,52.145,11.06,76.192,23.188c5.557,2.802,10.939,5.962,16.336,9.068
		c5.694,3.281,11.44,3.506,17.01,0.069c9.565-5.908,9.966-20.565-0.752-26.961c-15.612-9.313-31.905-17.138-49.037-23.195
		C285.08,311.805,251.253,307.08,216.699,307.331z"/>
</g>
</svg>
